<?xml version="1.0" standalone="no"?>
<!DOCTYPE svg PUBLIC "-//W3C//DTD SVG 20010904//EN"
 "http://www.w3.org/TR/2001/REC-SVG-20010904/DTD/svg10.dtd">
<svg version="1.0" xmlns="http://www.w3.org/2000/svg"
 width="512.000000pt" height="512.000000pt" viewBox="0 0 512.000000 512.000000"
 preserveAspectRatio="xMidYMid meet">
<metadata>
Created by potrace 1.14, written by Peter Selinger 2001-2017
</metadata>
<g transform="translate(0.000000,512.000000) scale(0.100000,-0.100000)"
fill="#000000" stroke="none">
<path d="M2348 5115 c-2 -1 -33 -5 -71 -9 -276 -24 -570 -106 -834 -233 -434
-208 -868 -617 -1123 -1057 -126 -219 -240 -528 -274 -746 -3 -19 -10 -62 -16
-95 -32 -192 -35 -620 -6 -795 3 -14 7 -42 10 -63 64 -428 272 -868 574 -1214
251 -288 536 -510 847 -659 98 -47 282 -120 326 -129 9 -2 47 -12 85 -24 110
-32 170 -44 334 -68 171 -24 612 -23 735 2 11 3 36 7 55 10 50 7 91 14 120 21
14 3 32 7 40 9 148 32 350 101 493 168 337 160 621 382 901 708 60 69 164 217
222 314 62 103 157 292 179 355 1 3 4 12 8 20 43 106 120 392 133 489 3 25 7
57 9 71 21 139 27 491 12 650 -5 46 -10 87 -12 90 -1 3 -5 28 -9 55 -11 91
-48 250 -88 375 -156 491 -488 942 -943 1281 -319 239 -726 404 -1115 455 -25
3 -58 8 -75 10 -36 5 -512 14 -517 9z m421 -259 c58 -5 112 -9 122 -11 9 -2
34 -6 55 -9 196 -30 427 -103 614 -194 100 -48 298 -168 355 -214 177 -144
298 -256 388 -362 28 -33 55 -63 58 -66 10 -9 149 -198 149 -204 0 -3 14 -25
31 -50 59 -88 160 -304 203 -437 55 -166 87 -310 102 -456 3 -32 8 -76 10 -98
6 -59 7 -332 0 -390 -3 -27 -8 -75 -11 -105 -28 -267 -123 -562 -259 -805
-213 -381 -550 -715 -936 -930 -367 -203 -838 -299 -1290 -261 -131 11 -315
43 -415 71 -49 15 -103 30 -120 34 -100 26 -353 146 -475 224 -360 233 -655
551 -845 912 -81 153 -164 374 -191 510 -11 55 -15 75 -24 135 -6 36 -13 76
-15 90 -16 91 -23 451 -11 535 3 17 8 62 12 100 5 56 35 217 59 317 17 73 89
257 145 373 60 122 175 311 235 384 334 406 675 655 1100 799 180 61 335 92
550 107 55 4 101 8 102 9 5 4 214 -2 302 -8z"/>
<path d="M2444 4781 c-2 -2 -4 -129 -4 -283 l1 -278 127 0 127 0 -1 273 c-1
149 -2 277 -3 282 -1 10 -237 16 -247 6z"/>
<path d="M1575 4526 c-39 -23 -88 -51 -108 -63 l-37 -22 31 -53 c18 -29 43
-73 57 -98 67 -120 177 -307 188 -319 10 -11 23 -7 81 25 37 22 85 48 106 59
20 11 37 22 37 25 0 8 -269 473 -278 481 -4 3 -39 -12 -77 -35z"/>
<path d="M3466 4513 c-8 -16 -24 -44 -35 -63 -12 -19 -35 -60 -51 -90 -17 -30
-64 -112 -105 -183 -73 -127 -74 -128 -52 -141 12 -7 61 -36 109 -64 l87 -51
80 137 c164 285 203 353 200 356 -6 5 -171 101 -196 114 -20 11 -24 9 -37 -15z"/>
<path d="M2470 4035 c-4 -5 -8 -358 -7 -782 l0 -773 31 -1 c17 0 195 -1 396
-1 l365 0 2 95 c2 82 0 95 -15 99 -9 2 -137 3 -284 3 -175 0 -269 3 -271 10
-2 5 -3 313 -3 683 l1 672 -45 1 c-25 0 -71 1 -103 2 -32 1 -62 -2 -67 -8z"/>
<path d="M650 3643 c-67 -117 -67 -114 0 -150 47 -26 161 -92 180 -103 22 -14
191 -110 221 -126 l27 -13 61 105 c33 58 59 110 56 115 -3 4 -61 39 -128 77
-67 38 -173 99 -236 136 -62 36 -115 66 -116 66 -2 0 -31 -48 -65 -107z"/>
<path d="M4250 3614 c-69 -41 -134 -79 -145 -84 -11 -6 -29 -16 -40 -22 -77
-49 -127 -78 -135 -78 -5 0 -12 -5 -15 -10 -8 -13 106 -220 120 -220 6 1 31
13 57 28 26 15 127 73 225 130 98 56 184 106 191 110 10 7 -2 35 -49 115 -34
59 -67 107 -73 106 -6 0 -67 -34 -136 -75z"/>
<path d="M329 2656 c-1 -34 -1 -182 0 -207 1 -14 33 -16 281 -16 l280 0 1 24
c0 12 0 55 0 93 0 39 0 85 0 104 l-1 33 -280 0 -280 0 -1 -31z"/>
<path d="M4236 2681 c-1 -3 -3 -60 -2 -126 l1 -120 281 -1 282 -1 -2 126 -1
126 -278 1 c-152 1 -279 -1 -281 -5z"/>
<path d="M900 1898 c-74 -44 -164 -96 -200 -115 -71 -39 -140 -83 -140 -90 0
-6 122 -213 125 -213 4 0 342 195 365 210 8 5 36 21 62 35 26 13 49 28 52 33
5 9 -114 223 -123 221 -3 0 -67 -37 -141 -81z"/>
<path d="M3977 1883 c-33 -53 -97 -169 -97 -176 0 -7 258 -157 271 -157 5 0 9
-4 9 -10 0 -5 5 -10 10 -10 6 0 51 -24 100 -54 l89 -54 29 47 c40 65 86 143
93 161 5 12 -49 47 -228 150 -129 74 -239 136 -243 138 -5 2 -20 -14 -33 -35z"/>
<path d="M1639 1223 c-9 -16 -71 -124 -138 -240 -67 -117 -120 -217 -117 -222
7 -11 206 -125 210 -120 6 7 86 141 86 144 0 2 44 79 99 171 l98 168 -108 63
c-60 35 -110 63 -112 63 -1 0 -10 -12 -18 -27z"/>
<path d="M3253 1157 c-57 -34 -103 -64 -103 -68 0 -4 43 -80 96 -170 53 -90
110 -189 127 -219 46 -84 51 -91 62 -88 6 2 56 29 111 62 l101 58 -65 112
c-35 61 -72 125 -81 141 -47 87 -136 235 -141 234 -3 0 -51 -28 -107 -62z"/>
<path d="M2440 623 l0 -283 23 -1 c25 -1 219 0 227 0 4 1 5 544 1 561 0 3 -57
5 -126 5 l-125 0 0 -282z"/>
</g>
</svg>
